<?xml version="1.0" encoding="UTF-8" ?>
<svg
  width="400"
  height="400"
  viewBox="0 0 400 400"
  fill="none"
  xmlns="http://www.w3.org/2000/svg"
>
  <!-- Arka plan dairesi -->
  <circle cx="200" cy="200" r="180" fill="#F3F4F6" />
  
  <!-- Sayfa yığını illüstrasyonu -->
  <rect
    x="120"
    y="140"
    width="160"
    height="160"
    rx="8"
    fill="#E5E7EB"
    stroke="#D1D5DB"
    stroke-width="4"
  />
  <rect
    x="130"
    y="130"
    width="160"
    height="160"
    rx="8"
    fill="#F3F4F6"
    stroke="#D1D5DB"
    stroke-width="4"
  />
  <rect
    x="140"
    y="120"
    width="160"
    height="160"
    rx="8"
    fill="#FFFFFF"
    stroke="#D1D5DB"
    stroke-width="4"
  />
  
  <!-- Sayfa içeriği -->
  <rect
    x="160"
    y="140"
    width="120"
    height="12"
    rx="6"
    fill="#D1D5DB"
  /> <!-- Başlık -->
  <rect
    x="160"
    y="160"
    width="80"
    height="8"
    rx="4"
    fill="#D1D5DB"
  /> <!-- Alt başlık -->
  
  <!-- İçerik çizgileri -->
  <rect x="160" y="180" width="120" height="6" rx="3" fill="#D1D5DB" />
  <rect x="160" y="194" width="100" height="6" rx="3" fill="#D1D5DB" />
  <rect x="160" y="208" width="110" height="6" rx="3" fill="#D1D5DB" />
  <rect x="160" y="222" width="90" height="6" rx="3" fill="#D1D5DB" />
  
  <!-- Yeni sayfa butonu -->
  <circle cx="200" cy="320" r="24" fill="#4E73DF" />
  <path
    d="M200 308L200 332"
    stroke="white"
    stroke-width="4"
    stroke-linecap="round"
  />
  <path
    d="M188 320L212 320"
    stroke="white"
    stroke-width="4"
    stroke-linecap="round"
  />
  
  <!-- Dekoratif elementler -->
  <circle cx="140" cy="100" r="8" fill="#4E73DF" opacity="0.2" />
  <circle cx="260" cy="340" r="12" fill="#4E73DF" opacity="0.2" />
  <circle cx="320" cy="180" r="10" fill="#4E73DF" opacity="0.2" />
  <circle cx="100" cy="240" r="6" fill="#4E73DF" opacity="0.2" />
</svg>
