<?xml version="1.0" encoding="UTF-8" ?>
<svg
  width="400"
  height="400"
  viewBox="0 0 400 400"
  fill="none"
  xmlns="http://www.w3.org/2000/svg"
>
  <!-- Arka plan dairesi -->
  <circle cx="200" cy="200" r="180" fill="#F3F4F6" />
  
  <!-- Medya galerisi illüstrasyonu -->
  <rect
    x="100"
    y="120"
    width="80"
    height="80"
    rx="8"
    fill="#E5E7EB"
    stroke="#D1D5DB"
    stroke-width="4"
  />
  <path d="M110 160L170 160" stroke="#D1D5DB" stroke-width="2" />
  <path d="M110 170L150 170" stroke="#D1D5DB" stroke-width="2" />
  
  <rect
    x="190"
    y="120"
    width="80"
    height="80"
    rx="8"
    fill="#E5E7EB"
    stroke="#D1D5DB"
    stroke-width="4"
  />
  <circle cx="230" cy="160" r="20" fill="#D1D5DB" />
  
  <rect
    x="100"
    y="210"
    width="80"
    height="80"
    rx="8"
    fill="#E5E7EB"
    stroke="#D1D5DB"
    stroke-width="4"
  />
  <rect x="110" y="220" width="60" height="40" rx="4" fill="#D1D5DB" />
  <rect x="110" y="270" width="40" height="4" rx="2" fill="#D1D5DB" />
  
  <rect
    x="190"
    y="210"
    width="80"
    height="80"
    rx="8"
    fill="#E5E7EB"
    stroke="#D1D5DB"
    stroke-width="4"
  />
  <path d="M200 250L260 250" stroke="#D1D5DB" stroke-width="2" />
  <path d="M200 260L240 260" stroke="#D1D5DB" stroke-width="2" />
  <path d="M200 270L250 270" stroke="#D1D5DB" stroke-width="2" />
  
  <!-- Yükleme işareti -->
  <circle cx="200" cy="320" r="24" fill="#4E73DF" />
  <path
    d="M200 308L200 332"
    stroke="white"
    stroke-width="4"
    stroke-linecap="round"
  />
  <path
    d="M188 320L212 320"
    stroke="white"
    stroke-width="4"
    stroke-linecap="round"
  />
  
  <!-- Dekoratif elementler -->
  <circle cx="300" cy="140" r="8" fill="#4E73DF" opacity="0.2" />
  <circle cx="320" cy="240" r="12" fill="#4E73DF" opacity="0.2" />
  <circle cx="80" cy="180" r="10" fill="#4E73DF" opacity="0.2" />
  <circle cx="100" cy="320" r="6" fill="#4E73DF" opacity="0.2" />
</svg>
