<?xml version="1.0" encoding="UTF-8" ?>
<svg
  width="400"
  height="400"
  viewBox="0 0 400 400"
  fill="none"
  xmlns="http://www.w3.org/2000/svg"
>
  <!-- Arka plan dairesi -->
  <circle cx="200" cy="200" r="180" fill="#F3F4F6" />
  
  <!-- Boş kutu illüstrasyonu -->
  <rect
    x="120"
    y="140"
    width="160"
    height="140"
    rx="8"
    fill="#E5E7EB"
    stroke="#D1D5DB"
    stroke-width="4"
  />
  <path d="M120 160L280 160" stroke="#D1D5DB" stroke-width="4" />
  
  <!-- Üç nokta -->
  <circle cx="135" cy="150" r="3" fill="#9CA3AF" />
  <circle cx="150" cy="150" r="3" fill="#9CA3AF" />
  <circle cx="165" cy="150" r="3" fill="#9CA3AF" />
  
  <!-- İçerik çizgileri -->
  <rect x="140" y="180" width="120" height="8" rx="4" fill="#D1D5DB" />
  <rect x="140" y="200" width="80" height="8" rx="4" fill="#D1D5DB" />
  <rect x="140" y="220" width="100" height="8" rx="4" fill="#D1D5DB" />
  
  <!-- Artı işareti -->
  <circle cx="200" cy="280" r="24" fill="#4E73DF" />
  <path
    d="M200 268L200 292"
    stroke="white"
    stroke-width="4"
    stroke-linecap="round"
  />
  <path
    d="M188 280L212 280"
    stroke="white"
    stroke-width="4"
    stroke-linecap="round"
  />
  
  <!-- Dekoratif elementler -->
  <circle cx="140" cy="100" r="8" fill="#4E73DF" opacity="0.2" />
  <circle cx="260" cy="300" r="12" fill="#4E73DF" opacity="0.2" />
  <circle cx="300" cy="150" r="10" fill="#4E73DF" opacity="0.2" />
  <circle cx="100" cy="250" r="6" fill="#4E73DF" opacity="0.2" />
</svg>
