<?xml version="1.0" encoding="UTF-8" ?>
<svg
  width="400"
  height="400"
  viewBox="0 0 400 400"
  fill="none"
  xmlns="http://www.w3.org/2000/svg"
>
  <!-- Arka plan dairesi -->
  <circle cx="200" cy="200" r="180" fill="#F3F4F6" />
  
  <!-- Grafik illüstrasyonu -->
  <rect
    x="100"
    y="120"
    width="200"
    height="160"
    rx="8"
    fill="#E5E7EB"
    stroke="#D1D5DB"
    stroke-width="4"
  />
  
  <!-- Grafik çizgileri -->
  <path
    d="M120 240L280 240"
    stroke="#D1D5DB"
    stroke-width="2"
  /> <!-- x ekseni -->
  <path
    d="M120 140L120 240"
    stroke="#D1D5DB"
    stroke-width="2"
  /> <!-- y ekseni -->
  
  <!-- Grafik noktaları -->
  <circle cx="160" cy="200" r="4" fill="#4E73DF" />
  <circle cx="200" cy="180" r="4" fill="#4E73DF" />
  <circle cx="240" cy="220" r="4" fill="#4E73DF" />
  
  <!-- Grafik çizgisi -->
  <path d="M160 200L200 180L240 220" stroke="#4E73DF" stroke-width="2" />
  
  <!-- Eksen etiketleri -->
  <rect x="140" y="250" width="20" height="4" rx="2" fill="#D1D5DB" />
  <rect x="180" y="250" width="20" height="4" rx="2" fill="#D1D5DB" />
  <rect x="220" y="250" width="20" height="4" rx="2" fill="#D1D5DB" />
  <rect x="260" y="250" width="20" height="4" rx="2" fill="#D1D5DB" />
  
  <rect x="100" y="160" width="12" height="4" rx="2" fill="#D1D5DB" />
  <rect x="100" y="180" width="12" height="4" rx="2" fill="#D1D5DB" />
  <rect x="100" y="200" width="12" height="4" rx="2" fill="#D1D5DB" />
  <rect x="100" y="220" width="12" height="4" rx="2" fill="#D1D5DB" />
  
  <!-- Analytics kurulum butonu -->
  <circle cx="200" cy="320" r="24" fill="#4E73DF" />
  <path
    d="M190 320L210 320"
    stroke="white"
    stroke-width="4"
    stroke-linecap="round"
  />
  <path
    d="M200 310L200 330"
    stroke="white"
    stroke-width="4"
    stroke-linecap="round"
  />
  
  <!-- Dekoratif elementler -->
  <circle cx="140" cy="100" r="8" fill="#4E73DF" opacity="0.2" />
  <circle cx="260" cy="340" r="12" fill="#4E73DF" opacity="0.2" />
  <circle cx="320" cy="180" r="10" fill="#4E73DF" opacity="0.2" />
  <circle cx="80" cy="220" r="6" fill="#4E73DF" opacity="0.2" />
</svg>
