<?xml version="1.0" encoding="UTF-8" ?>
<svg
  width="400"
  height="400"
  viewBox="0 0 400 400"
  fill="none"
  xmlns="http://www.w3.org/2000/svg"
>
  <!-- Arka plan dairesi -->
  <circle cx="200" cy="200" r="180" fill="#F3F4F6" />
  
  <!-- Blog yazısı illüstrasyonu -->
  <rect
    x="100"
    y="120"
    width="200"
    height="180"
    rx="8"
    fill="#E5E7EB"
    stroke="#D1D5DB"
    stroke-width="4"
  />
  
  <!-- Başlık -->
  <rect x="120" y="140" width="160" height="12" rx="6" fill="#D1D5DB" />
  
  <!-- Alt başlık -->
  <rect x="120" y="160" width="100" height="8" rx="4" fill="#D1D5DB" />
  
  <!-- İçerik paragrafları -->
  <rect x="120" y="180" width="160" height="6" rx="3" fill="#D1D5DB" />
  <rect x="120" y="194" width="140" height="6" rx="3" fill="#D1D5DB" />
  <rect x="120" y="208" width="150" height="6" rx="3" fill="#D1D5DB" />
  <rect x="120" y="222" width="130" height="6" rx="3" fill="#D1D5DB" />
  
  <!-- Etiketler -->
  <rect
    x="120"
    y="250"
    width="40"
    height="20"
    rx="10"
    fill="#4E73DF"
    opacity="0.2"
  />
  <rect
    x="170"
    y="250"
    width="60"
    height="20"
    rx="10"
    fill="#4E73DF"
    opacity="0.2"
  />
  <rect
    x="240"
    y="250"
    width="40"
    height="20"
    rx="10"
    fill="#4E73DF"
    opacity="0.2"
  />
  
  <!-- Artı işareti -->
  <circle cx="200" cy="320" r="24" fill="#4E73DF" />
  <path
    d="M200 308L200 332"
    stroke="white"
    stroke-width="4"
    stroke-linecap="round"
  />
  <path
    d="M188 320L212 320"
    stroke="white"
    stroke-width="4"
    stroke-linecap="round"
  />
  
  <!-- Dekoratif elementler -->
  <circle cx="140" cy="80" r="8" fill="#4E73DF" opacity="0.2" />
  <circle cx="260" cy="340" r="12" fill="#4E73DF" opacity="0.2" />
  <circle cx="320" cy="180" r="10" fill="#4E73DF" opacity="0.2" />
  <circle cx="80" cy="220" r="6" fill="#4E73DF" opacity="0.2" />
</svg>
