<?xml version="1.0" encoding="UTF-8" ?>
<svg
  width="400"
  height="400"
  viewBox="0 0 400 400"
  fill="none"
  xmlns="http://www.w3.org/2000/svg"
>
  <!-- Arka plan dairesi -->
  <circle cx="200" cy="200" r="180" fill="#F3F4F6" />
  
  <!-- Zarf illüstrasyonu -->
  <rect
    x="100"
    y="140"
    width="200"
    height="140"
    rx="8"
    fill="#E5E7EB"
    stroke="#D1D5DB"
    stroke-width="4"
  />
  <path d="M100 140L200 210L300 140" stroke="#D1D5DB" stroke-width="4" />
  <path d="M100 280L180 220" stroke="#D1D5DB" stroke-width="4" />
  <path d="M300 280L220 220" stroke="#D1D5DB" stroke-width="4" />
  
  <!-- Mesaj içeriği -->
  <rect x="140" y="170" width="120" height="8" rx="4" fill="#D1D5DB" />
  <rect x="140" y="190" width="80" height="8" rx="4" fill="#D1D5DB" />
  <rect x="140" y="210" width="100" height="8" rx="4" fill="#D1D5DB" />
  
  <!-- İletişim formu butonu -->
  <circle cx="200" cy="320" r="24" fill="#4E73DF" />
  <path
    d="M190 320L210 320"
    stroke="white"
    stroke-width="4"
    stroke-linecap="round"
  />
  <path
    d="M200 310L200 330"
    stroke="white"
    stroke-width="4"
    stroke-linecap="round"
  />
  
  <!-- Dekoratif elementler -->
  <circle cx="120" cy="100" r="8" fill="#4E73DF" opacity="0.2" />
  <circle cx="280" cy="340" r="12" fill="#4E73DF" opacity="0.2" />
  <circle cx="320" cy="160" r="10" fill="#4E73DF" opacity="0.2" />
  <circle cx="80" cy="240" r="6" fill="#4E73DF" opacity="0.2" />
</svg>
